HIERARCHY
ROOT Hips
{
	OFFSET 0.000000 71.427986 0.000000
	CHANNELS 6 Xposition Yposition Zposition Xrotation Yrotation Zrotation
	JOINT Pelvis
	{
		OFFSET 0.000000 0.000000 0.000000
		CHANNELS 3 Xrotation Yrotation Zrotation
		JOINT LeftUpLeg
		{
			OFFSET 6.797100 -2.508499 -1.318700
			CHANNELS 3 Xrotation Yrotation Zrotation
			JOINT LeftLeg
			{
				OFFSET 0.069008 -29.241863 0.690200
				CHANNELS 3 Xrotation Yrotation Zrotation
				JOINT LeftFoot
				{
					OFFSET -0.069008 -29.568123 -0.266800
					CHANNELS 3 Xrotation Yrotation Zrotation
					JOINT LeftToeBase
					{
						OFFSET 3.145500 -8.631000 16.059900
						CHANNELS 3 Xrotation Yrotation Zrotation
						End Site
						{
							OFFSET 0.000000 18.501587 0.000000
						}
					}
				}
			}
			JOINT Left_ShortSleeve
			{
				OFFSET 0.265923 -10.480953 1.153800
				CHANNELS 3 Xrotation Yrotation Zrotation
				End Site
				{
					OFFSET 1.725763 19.823879 0.000000
				}
			}
		}
		JOINT RightUpLeg
		{
			OFFSET -6.797100 -2.508499 -1.318700
			CHANNELS 3 Xrotation Yrotation Zrotation
			JOINT RightLeg
			{
				OFFSET -0.082453 -29.241932 0.688000
				CHANNELS 3 Xrotation Yrotation Zrotation
				JOINT RightFoot
				{
					OFFSET 0.082453 -29.568058 -0.264600
					CHANNELS 3 Xrotation Yrotation Zrotation
					JOINT RightToeBase
					{
						OFFSET -3.115300 -8.682800 16.113400
						CHANNELS 3 Xrotation Yrotation Zrotation
						End Site
						{
							OFFSET 0.000000 18.567114 0.000000
						}
					}
				}
			}
			JOINT Right_ShortSleeve
			{
				OFFSET -0.265923 -10.480953 1.153800
				CHANNELS 3 Xrotation Yrotation Zrotation
				End Site
				{
					OFFSET -1.725766 19.823910 0.000000
				}
			}
		}
	}
	JOINT Spine
	{
		OFFSET 0.000000 13.368103 0.470500
		CHANNELS 3 Xrotation Yrotation Zrotation
		JOINT Spine1
		{
			OFFSET 0.147000 13.837402 0.538800
			CHANNELS 3 Xrotation Yrotation Zrotation
			JOINT Spine2
			{
				OFFSET 0.168000 16.242897 -1.435500
				CHANNELS 3 Xrotation Yrotation Zrotation
				JOINT Neck
				{
					OFFSET 0.217200 18.631500 -1.679100
					CHANNELS 3 Xrotation Yrotation Zrotation
					JOINT Head
					{
						OFFSET 0.000000 6.599396 1.385900
						CHANNELS 3 Xrotation Yrotation Zrotation
						JOINT Hat
						{
							OFFSET -0.532200 27.220596 -10.096100
							CHANNELS 3 Xrotation Yrotation Zrotation
							End Site
							{
								OFFSET 0.000000 22.029861 0.000000
							}
						}
						JOINT HairD
						{
							OFFSET -10.777400 17.437393 -1.325900
							CHANNELS 3 Xrotation Yrotation Zrotation
							JOINT HairD1
							{
								OFFSET -3.290299 -11.051193 1.062200
								CHANNELS 3 Xrotation Yrotation Zrotation
								End Site
								{
									OFFSET 0.000000 11.579437 0.000000
								}
							}
						}
						JOINT HairB
						{
							OFFSET -10.777400 17.437393 1.467900
							CHANNELS 3 Xrotation Yrotation Zrotation
							JOINT HairB1
							{
								OFFSET -1.561200 -12.956299 3.590200
								CHANNELS 3 Xrotation Yrotation Zrotation
								End Site
								{
									OFFSET 0.000000 13.534866 0.000000
								}
							}
						}
						JOINT HairA
						{
							OFFSET 9.713100 17.437393 1.467900
							CHANNELS 3 Xrotation Yrotation Zrotation
							JOINT HairA1
							{
								OFFSET 1.561200 -12.956299 3.590200
								CHANNELS 3 Xrotation Yrotation Zrotation
								End Site
								{
									OFFSET 0.000000 13.534866 0.000000
								}
							}
						}
						JOINT HairC
						{
							OFFSET 9.713100 17.437393 -1.325900
							CHANNELS 3 Xrotation Yrotation Zrotation
							JOINT HairC1
							{
								OFFSET 3.290300 -11.051193 1.062200
								CHANNELS 3 Xrotation Yrotation Zrotation
								End Site
								{
									OFFSET 0.000000 11.579437 0.000000
								}
							}
						}
					}
				}
				JOINT LeftShoulder
				{
					OFFSET 5.101800 15.108002 -2.763700
					CHANNELS 3 Xrotation Yrotation Zrotation
					JOINT LeftArm
					{
						OFFSET 9.825497 2.506317 -1.597400
						CHANNELS 3 Xrotation Yrotation Zrotation
						JOINT LeftForeArm
						{
							OFFSET 21.966244 0.000000 0.000000
							CHANNELS 3 Xrotation Yrotation Zrotation
							JOINT LeftHand
							{
								OFFSET 33.879036 0.000000 0.000000
								CHANNELS 3 Xrotation Yrotation Zrotation
								JOINT LeftHandThumb1
								{
									OFFSET 6.715286 -2.359680 3.363841
									CHANNELS 3 Xrotation Yrotation Zrotation
									JOINT LeftHandThumb2
									{
										OFFSET 2.507072 -1.447464 1.447461
										CHANNELS 3 Xrotation Yrotation Zrotation
										JOINT LeftHandThumb3
										{
											OFFSET 2.898338 -1.673355 1.673357
											CHANNELS 3 Xrotation Yrotation Zrotation
											End Site
											{
												OFFSET -0.295959 3.727692 -0.131651
											}
										}
									}
								}
								JOINT LeftHandIndex1
								{
									OFFSET 14.190811 -0.254547 3.840278
									CHANNELS 3 Xrotation Yrotation Zrotation
									JOINT LeftHandIndex2
									{
										OFFSET 3.551727 0.000000 -0.000000
										CHANNELS 3 Xrotation Yrotation Zrotation
										JOINT LeftHandIndex3
										{
											OFFSET 2.894196 0.000000 0.000000
											CHANNELS 3 Xrotation Yrotation Zrotation
											End Site
											{
												OFFSET -1.000603 2.690872 0.366626
											}
										}
									}
								}
								JOINT LeftHandMiddle1
								{
									OFFSET 13.776489 0.000000 0.000000
									CHANNELS 3 Xrotation Yrotation Zrotation
									JOINT LeftHandMiddle2
									{
										OFFSET 3.438232 0.000000 0.000000
										CHANNELS 3 Xrotation Yrotation Zrotation
										JOINT LeftHandMiddle3
										{
											OFFSET 3.691551 0.000000 0.000000
											CHANNELS 3 Xrotation Yrotation Zrotation
											End Site
											{
												OFFSET -1.082298 3.499527 0.457670
											}
										}
									}
								}
								JOINT LeftHandRing1
								{
									OFFSET 13.966164 -0.268127 -3.067488
									CHANNELS 3 Xrotation Yrotation Zrotation
									JOINT LeftHandRing2
									{
										OFFSET 3.162567 0.000000 0.000000
										CHANNELS 3 Xrotation Yrotation Zrotation
										JOINT LeftHandRing3
										{
											OFFSET 3.324348 0.000000 0.000000
											CHANNELS 3 Xrotation Yrotation Zrotation
											End Site
											{
												OFFSET -0.861900 3.184998 0.405154
											}
										}
									}
								}
								JOINT LeftHandPinky1
								{
									OFFSET 13.131393 -0.168503 -5.746925
									CHANNELS 3 Xrotation Yrotation Zrotation
									JOINT LeftHandPinky2
									{
										OFFSET 2.849182 0.000000 0.000000
										CHANNELS 3 Xrotation Yrotation Zrotation
										JOINT LeftHandPinky3
										{
											OFFSET 2.805038 0.000000 0.000000
											CHANNELS 3 Xrotation Yrotation Zrotation
											End Site
											{
												OFFSET -0.882500 2.642609 0.325652
											}
										}
									}
								}
							}
							JOINT Left_Sleeve
							{
								OFFSET 6.592125 -0.646545 0.805568
								CHANNELS 3 Xrotation Yrotation Zrotation
								End Site
								{
									OFFSET -0.000179 20.275787 -0.000000
								}
							}
						}
					}
				}
				JOINT RightShoulder
				{
					OFFSET -5.731700 15.108002 -2.763700
					CHANNELS 3 Xrotation Yrotation Zrotation
					JOINT RightArm
					{
						OFFSET -9.825497 2.506317 -1.597400
						CHANNELS 3 Xrotation Yrotation Zrotation
						JOINT RightForeArm
						{
							OFFSET -21.966242 0.000000 0.000000
							CHANNELS 3 Xrotation Yrotation Zrotation
							JOINT RightHand
							{
								OFFSET -33.879032 0.000000 0.000000
								CHANNELS 3 Xrotation Yrotation Zrotation
								JOINT RightHandThumb1
								{
									OFFSET -6.715286 -2.359680 3.363841
									CHANNELS 3 Xrotation Yrotation Zrotation
									JOINT RightHandThumb2
									{
										OFFSET -2.507072 -1.447464 1.447461
										CHANNELS 3 Xrotation Yrotation Zrotation
										JOINT RightHandThumb3
										{
											OFFSET -2.898338 -1.673355 1.673357
											CHANNELS 3 Xrotation Yrotation Zrotation
											End Site
											{
												OFFSET 0.295959 3.727692 -0.131651
											}
										}
									}
								}
								JOINT RightHandIndex1
								{
									OFFSET -14.190811 -0.254547 3.840278
									CHANNELS 3 Xrotation Yrotation Zrotation
									JOINT RightHandIndex2
									{
										OFFSET -3.551727 0.000000 -0.000000
										CHANNELS 3 Xrotation Yrotation Zrotation
										JOINT RightHandIndex3
										{
											OFFSET -2.894196 0.000000 0.000000
											CHANNELS 3 Xrotation Yrotation Zrotation
											End Site
											{
												OFFSET 1.000603 2.690872 0.366626
											}
										}
									}
								}
								JOINT RightHandMiddle1
								{
									OFFSET -13.776489 0.000000 0.000000
									CHANNELS 3 Xrotation Yrotation Zrotation
									JOINT RightHandMiddle2
									{
										OFFSET -3.438232 0.000000 0.000000
										CHANNELS 3 Xrotation Yrotation Zrotation
										JOINT RightHandMiddle3
										{
											OFFSET -3.691551 0.000000 0.000000
											CHANNELS 3 Xrotation Yrotation Zrotation
											End Site
											{
												OFFSET 1.082298 3.499527 0.457670
											}
										}
									}
								}
								JOINT RightHandRing1
								{
									OFFSET -13.966164 -0.268127 -3.067488
									CHANNELS 3 Xrotation Yrotation Zrotation
									JOINT RightHandRing2
									{
										OFFSET -3.162567 0.000000 0.000000
										CHANNELS 3 Xrotation Yrotation Zrotation
										JOINT RightHandRing3
										{
											OFFSET -3.324348 0.000000 0.000000
											CHANNELS 3 Xrotation Yrotation Zrotation
											End Site
											{
												OFFSET 0.861900 3.184998 0.405154
											}
										}
									}
								}
								JOINT RightHandPinky1
								{
									OFFSET -13.131393 -0.168503 -5.746925
									CHANNELS 3 Xrotation Yrotation Zrotation
									JOINT RightHandPinky2
									{
										OFFSET -2.849182 0.000000 0.000000
										CHANNELS 3 Xrotation Yrotation Zrotation
										JOINT RightHandPinky3
										{
											OFFSET -2.805038 0.000000 0.000000
											CHANNELS 3 Xrotation Yrotation Zrotation
											End Site
											{
												OFFSET 0.882500 2.642609 0.325652
											}
										}
									}
								}
							}
							JOINT Right_Sleeve
							{
								OFFSET -6.592125 -0.646545 0.805568
								CHANNELS 3 Xrotation Yrotation Zrotation
								End Site
								{
									OFFSET 0.000179 20.275787 -0.000000
								}
							}
						}
					}
				}
				JOINT Bind_Right_JacketString
				{
					OFFSET -3.534800 11.969597 7.200700
					CHANNELS 3 Xrotation Yrotation Zrotation
					JOINT Bind_Right_JacketString1
					{
						OFFSET -0.319900 -6.102600 2.794100
						CHANNELS 3 Xrotation Yrotation Zrotation
						End Site
						{
							OFFSET 0.000000 6.719452 0.000000
						}
					}
				}
				JOINT Bind_Left_JacketString
				{
					OFFSET 2.904800 11.969597 7.200700
					CHANNELS 3 Xrotation Yrotation Zrotation
					JOINT Bind_Left_JacketString1
					{
						OFFSET 0.364800 -5.904503 3.186800
						CHANNELS 3 Xrotation Yrotation Zrotation
						End Site
						{
							OFFSET 0.000000 6.719513 0.000000
						}
					}
				}
				JOINT HairE
				{
					OFFSET 5.915200 17.612701 -11.592200
					CHANNELS 3 Xrotation Yrotation Zrotation
					JOINT HairE1
					{
						OFFSET 0.289200 -7.171898 -1.284500
						CHANNELS 3 Xrotation Yrotation Zrotation
						End Site
						{
							OFFSET 0.000000 7.291756 0.000000
						}
					}
				}
				JOINT HairF
				{
					OFFSET -0.864800 17.612701 -11.592200
					CHANNELS 3 Xrotation Yrotation Zrotation
					JOINT HairF1
					{
						OFFSET 0.000000 -14.087097 -2.127501
						CHANNELS 3 Xrotation Yrotation Zrotation
						End Site
						{
							OFFSET 0.000000 14.246841 0.000000
						}
					}
				}
				JOINT HairG
				{
					OFFSET -8.087700 17.612701 -11.592200
					CHANNELS 3 Xrotation Yrotation Zrotation
					JOINT HairG1
					{
						OFFSET -0.293600 -6.081398 -0.910100
						CHANNELS 3 Xrotation Yrotation Zrotation
						End Site
						{
							OFFSET 0.000000 6.156120 0.000000
						}
					}
				}
			}
		}
	}
	JOINT Pouch
	{
		OFFSET 0.000000 4.394501 10.847300
		CHANNELS 3 Xrotation Yrotation Zrotation
		End Site
		{
			OFFSET 0.000000 21.880577 0.000000
		}
	}
	JOINT Bag
	{
		OFFSET -13.229000 4.813004 -0.593300
		CHANNELS 3 Xrotation Yrotation Zrotation
		End Site
		{
			OFFSET 0.000000 21.880577 0.000000
		}
	}
	JOINT OccupyGuyFacialAnim_Joint
	{
		OFFSET 1.000000 -70.206398 -1.655000
		CHANNELS 3 Xrotation Yrotation Zrotation
		End Site
		{
			OFFSET 0.000000 21.880577 0.000000
		}
	}
}
MOTION
Frames: 4
Frame Time: 0.033333
-0.168252 68.785950 1.199805 3.816929 0.909195 1.291883 -0.000000 -0.000000 0.000000 -34.332984 1.015791 1.148975 49.254478 9.532688 4.926510 -3.630984 6.916365 -6.974913 0.000001 -0.000000 0.000000 -0.000002 0.000000 -0.000000 -20.863221 -2.672200 9.288690 25.061146 -3.240567 -2.013328 -8.192170 0.976260 -8.563361 0.000000 -0.000000 0.000000 0.000001 0.000000 -0.000002 2.659129 1.249971 -0.539108 2.059905 0.748465 -0.208875 2.060594 0.749060 -0.197254 -0.685466 0.059333 0.168363 -5.001664 2.282059 -1.340812 0.000001 0.000000 -0.000000 0.000001 0.000000 -0.000000 0.000001 0.000000 0.000000 0.000001 0.000000 -0.000000 0.000000 -0.000000 0.000000 0.000001 0.000000 -0.000000 0.000000 -0.000000 0.000000 0.000001 0.000000 -0.000000 0.000001 0.000000 -0.000000 0.589511 -2.125355 -9.762956 7.321106 -16.772288 -68.538537 -0.000002 -1.659890 0.000006 -23.031879 -17.740001 11.765482 5.358061 -0.141367 9.666154 3.545764 27.155811 3.560549 0.000001 0.000002 -0.000002 -1.578832 0.825935 -19.703487 0.405085 2.870992 -21.069187 0.000001 0.000001 -0.000000 0.409502 7.162242 -25.647926 0.416497 2.993234 -22.185339 0.000000 0.000000 0.000001 2.386878 10.570818 -32.882330 0.471656 2.115277 -18.421985 -0.000001 0.000000 -0.000001 2.967940 13.388248 -36.938896 0.139965 1.667045 -18.441900 0.000000 -0.000000 0.000001 -0.000000 0.000000 0.000000 0.573170 4.298181 11.751580 1.222484 19.003798 64.501875 0.000002 22.629235 -0.000007 -13.860116 13.395844 -8.214378 0.789342 -8.211551 -4.825411 0.020114 -13.361249 -9.371049 0.000000 0.000000 0.000001 -1.070471 -2.247356 17.231258 0.405441 -2.871949 21.079323 -0.000000 -0.000000 0.000000 0.438989 -7.256207 26.595133 0.417432 -2.995671 22.211584 0.000002 -0.000001 -0.000001 2.698244 -11.184207 32.166089 0.472408 -2.116951 18.440374 -0.000001 -0.000002 -0.000002 4.305380 -16.260307 34.920961 0.139799 -1.666344 18.434727 -0.000001 0.000000 0.000001 0.000001 0.000000 0.000000 -0.000001 -0.000000 -0.000000 0.000000 -0.000000 -0.000000 -0.000001 -0.000000 0.000000 -0.000001 -0.000000 0.000000 -0.000001 -0.000000 -0.000000 0.000000 -0.000000 -0.000000 -0.000001 -0.000000 0.000000 -0.000001 -0.000000 0.000000 -0.000001 -0.000000 -0.000000 0.000000 -0.000000 -0.000000 -0.000000 -0.000000 0.000000 -0.000000 -0.000000 0.000000 -0.000000 -0.000000 0.000000 
-0.322236 68.685760 -1.261142 3.751021 0.668092 1.557674 -0.000000 0.000000 -0.000000 -31.082873 2.786139 2.122683 55.790491 11.007168 3.986076 -7.501376 5.546580 -9.263946 0.000002 -0.000000 0.000000 0.000000 0.000000 0.000000 -22.544276 -2.858518 8.629903 23.774806 -2.430550 -0.945467 -5.111391 0.776272 -9.532658 -0.000000 0.000000 0.000000 0.000000 0.000001 -0.000003 2.601742 0.843735 -0.832342 2.005658 0.566513 -0.146025 2.006626 0.563134 -0.136938 -0.841778 0.219845 0.087592 -4.810811 3.547123 -1.510405 0.000000 0.000000 -0.000000 0.000000 0.000000 -0.000000 0.000000 0.000000 -0.000000 0.000000 0.000000 -0.000000 -0.000000 0.000000 -0.000000 0.000000 0.000000 -0.000000 -0.000000 0.000000 -0.000000 0.000000 0.000000 -0.000000 0.000000 0.000000 -0.000000 0.590103 -1.552546 -9.771965 11.144644 -16.331402 -68.228194 -0.000004 -2.448739 0.000039 -18.461344 -16.615765 11.526964 5.358063 -0.141365 9.666150 3.545765 27.155814 3.560551 0.000001 0.000001 -0.000003 -1.578832 0.825934 -19.703486 0.405085 2.870993 -21.069192 0.000002 0.000001 -0.000000 0.409502 7.162242 -25.647924 0.416497 2.993234 -22.185336 0.000000 0.000000 0.000002 2.386877 10.570818 -32.882330 0.471657 2.115278 -18.421987 -0.000001 0.000000 -0.000000 2.967942 13.388247 -36.938892 0.139965 1.667045 -18.441903 0.000000 -0.000001 -0.000001 0.000000 0.000001 0.000000 0.574505 4.317172 11.526699 1.216707 21.032432 64.210417 0.000008 25.062995 -0.000008 -14.348552 13.519533 -7.719614 0.789341 -8.211546 -4.825411 0.020114 -13.361248 -9.371044 0.000000 -0.000003 0.000001 -1.070470 -2.247353 17.231259 0.405442 -2.871950 21.079325 0.000000 0.000000 -0.000003 0.438990 -7.256202 26.595136 0.417433 -2.995670 22.211581 0.000003 0.000001 0.000003 2.698246 -11.184208 32.166096 0.472406 -2.116953 18.440368 0.000002 -0.000001 -0.000000 4.305381 -16.260314 34.920961 0.139796 -1.666342 18.434727 -0.000002 0.000001 -0.000001 -0.000000 -0.000000 0.000000 -0.000000 -0.000000 0.000000 0.000001 0.000000 0.000000 -0.000000 -0.000000 0.000000 -0.000000 -0.000000 0.000000 -0.000000 -0.000000 0.000000 0.000001 0.000000 -0.000000 -0.000000 -0.000000 0.000000 -0.000000 -0.000000 0.000000 -0.000000 -0.000000 0.000000 0.000001 0.000000 -0.000000 -0.000000 0.000000 -0.000000 -0.000000 0.000000 -0.000000 -0.000000 0.000000 -0.000000 
-0.411995 68.398964 -3.679912 3.524439 0.338202 1.945193 -0.000000 -0.000000 -0.000000 -26.285361 4.476579 2.863773 59.017383 8.865083 2.661220 -8.743875 3.771174 -13.151909 0.000000 0.000002 -0.000001 0.000001 -0.000000 -0.000000 -24.540955 -2.720810 8.239781 23.330547 -2.132181 -0.626464 -2.417075 0.549051 -9.915375 -0.000000 -0.000000 -0.000000 0.000001 0.000000 -0.000002 2.557764 0.438376 -1.030993 1.945665 0.367387 -0.109441 1.946620 0.360320 -0.103110 -0.962457 0.405099 -0.059562 -4.485833 4.860587 -1.832651 0.000000 -0.000001 0.000000 0.000000 -0.000001 0.000000 0.000000 -0.000001 0.000000 0.000000 -0.000001 0.000000 0.000000 -0.000001 0.000000 0.000000 -0.000001 0.000000 0.000000 -0.000001 0.000000 0.000000 -0.000001 0.000000 0.000000 -0.000001 0.000000 0.591839 -1.075580 -9.834086 14.546408 -15.843290 -68.340653 0.000009 -3.288553 -0.000006 -16.325185 -16.223902 11.385046 5.358062 -0.141367 9.666153 3.545766 27.155808 3.560549 0.000000 0.000002 -0.000001 -1.578831 0.825934 -19.703486 0.405085 2.870991 -21.069194 0.000001 0.000001 -0.000002 0.409503 7.162243 -25.647932 0.416498 2.993233 -22.185339 0.000000 -0.000000 0.000002 2.386879 10.570817 -32.882334 0.471654 2.115278 -18.421985 -0.000001 0.000001 -0.000002 2.967940 13.388248 -36.938892 0.139965 1.667044 -18.441898 -0.000000 0.000000 0.000003 0.000002 0.000000 0.000000 0.581332 4.083572 11.114024 1.454728 22.727485 64.078574 0.000001 28.418607 -0.000004 -14.070933 13.394279 -7.250590 0.789346 -8.211555 -4.825413 0.020111 -13.361250 -9.371045 0.000000 0.000000 -0.000000 -1.070467 -2.247358 17.231258 0.405439 -2.871952 21.079323 -0.000001 0.000000 -0.000003 0.438993 -7.256207 26.595133 0.417435 -2.995675 22.211582 0.000002 -0.000002 -0.000001 2.698247 -11.184211 32.166089 0.472411 -2.116950 18.440367 0.000002 -0.000002 -0.000002 4.305388 -16.260312 34.920961 0.139795 -1.666344 18.434723 -0.000001 -0.000001 0.000000 0.000001 0.000001 -0.000000 0.000001 -0.000000 -0.000000 0.000001 0.000000 0.000000 0.000001 -0.000000 -0.000000 0.000001 -0.000000 -0.000000 0.000001 -0.000000 -0.000000 0.000001 0.000000 -0.000000 0.000001 -0.000000 -0.000000 0.000001 -0.000000 -0.000000 0.000001 -0.000000 -0.000000 0.000001 0.000000 -0.000000 -0.000000 -0.000000 -0.000000 -0.000000 -0.000000 -0.000000 -0.000000 -0.000000 -0.000000 
-0.408644 67.906532 -6.098861 3.155383 -0.072895 2.440895 0.000000 -0.000000 -0.000000 -19.798400 6.598863 1.261971 59.980467 4.809730 1.341669 -13.943697 2.170093 -8.892670 0.000001 0.000000 0.000000 -0.000001 -0.000000 -0.000001 -26.995273 -2.325342 8.068906 23.883186 -2.303364 -0.955414 -0.131091 0.310985 -9.794369 0.000000 -0.000000 -0.000000 -0.000001 0.000001 -0.000003 2.497513 0.072955 -1.111707 1.872208 0.185960 -0.086055 1.872768 0.176871 -0.082267 -0.990411 0.587388 -0.242943 -4.003172 6.142480 -2.380832 -0.000000 0.000000 -0.000000 -0.000000 0.000000 -0.000000 -0.000000 0.000000 -0.000000 -0.000000 0.000000 -0.000000 -0.000000 0.000000 -0.000000 -0.000000 0.000000 -0.000000 -0.000000 0.000000 -0.000000 -0.000000 0.000000 -0.000000 -0.000000 0.000000 -0.000000 0.594715 -0.803653 -9.932272 17.175315 -15.238254 -68.828212 -0.000001 -3.791949 0.000009 -16.500310 -15.999862 11.021263 5.358062 -0.141368 9.666153 3.545762 27.155808 3.560551 0.000001 0.000001 -0.000001 -1.578835 0.825934 -19.703486 0.405086 2.870993 -21.069194 0.000001 0.000000 -0.000000 0.409502 7.162243 -25.647927 0.416499 2.993235 -22.185341 0.000000 0.000000 0.000001 2.386877 10.570819 -32.882334 0.471655 2.115277 -18.421987 -0.000002 0.000001 0.000001 2.967939 13.388249 -36.938903 0.139965 1.667046 -18.441902 0.000000 -0.000003 0.000002 0.000001 -0.000001 -0.000001 0.586318 3.688997 10.684603 1.883477 23.722715 64.090704 -0.000011 32.361843 0.000013 -13.162435 13.033059 -6.946200 0.789345 -8.211548 -4.825413 0.020110 -13.361248 -9.371045 0.000000 -0.000003 0.000002 -1.070469 -2.247359 17.231261 0.405443 -2.871940 21.079325 -0.000003 -0.000001 0.000000 0.438991 -7.256209 26.595134 0.417432 -2.995675 22.211586 0.000001 -0.000002 0.000002 2.698246 -11.184203 32.166093 0.472413 -2.116952 18.440365 0.000001 0.000002 0.000002 4.305384 -16.260304 34.920964 0.139798 -1.666344 18.434725 0.000001 0.000003 -0.000003 -0.000001 0.000001 -0.000001 -0.000001 0.000000 -0.000000 -0.000000 -0.000000 -0.000000 -0.000001 0.000000 -0.000000 -0.000001 0.000000 -0.000000 -0.000001 0.000000 -0.000000 -0.000000 -0.000000 0.000000 -0.000001 0.000000 -0.000000 -0.000001 0.000000 -0.000000 -0.000001 0.000000 -0.000000 -0.000000 -0.000000 0.000000 0.000000 -0.000000 -0.000000 0.000000 -0.000000 -0.000000 0.000000 -0.000000 -0.000000 
